<svg version="1.1" xmlns="http://www.w3.org/2000/svg" xmlns:xlink="http://www.w3.org/1999/xlink" width="800px" height="800px" viewBox="0,0,256,256"><g fill="#ffffff" fill-rule="nonzero" stroke="none" stroke-width="1" stroke-linecap="butt" stroke-linejoin="miter" stroke-miterlimit="10" stroke-dasharray="" stroke-dashoffset="0" font-family="none" font-weight="none" font-size="none" text-anchor="none" style="mix-blend-mode: normal"><g transform="translate(0.00039,0.00019) scale(0.77576,0.77576)"><path d="M100.606,100.606l49.394,-49.394v263.788c0,8.284 6.716,15 15,15c8.284,0 15,-6.716 15,-15v-263.788l49.394,49.394c2.928,2.929 6.767,4.394 10.606,4.394c3.839,0 7.678,-1.465 10.606,-4.394c5.858,-5.857 5.858,-15.355 0,-21.213l-75,-75c-5.857,-5.858 -15.355,-5.858 -21.213,0l-75,75c-5.858,5.857 -5.858,15.355 0,21.213c5.858,5.857 15.356,5.857 21.213,0z" id="XMLID_29_"></path></g></g></svg>